<svg width="53" height="43" viewBox="0 0 53 43" fill="none" xmlns="http://www.w3.org/2000/svg">
<path fill-rule="evenodd" clip-rule="evenodd" d="M13.729 40.5011C8.0753 37.8057 1.84974 33.9231 0.795356 27.9561C-0.223592 22.1896 5.9573 18.4636 8.97484 13.5961C11.8249 8.99887 12.2656 1.82053 17.717 0.66047C23.1569 -0.497148 26.898 6.3458 32.1043 8.67417C38.6972 11.6226 48.2348 9.59704 51.652 15.8369C55.1327 22.1927 51.1973 30.0384 46.7403 35.4C42.8419 40.0897 36.2229 40.9193 30.0024 41.8805C24.4766 42.7344 18.8897 42.9615 13.729 40.5011Z" fill="white"/>
<path d="M15 20.05L26 12L37 20.05V32.7C37 33.31 36.7425 33.895 36.284 34.3263C35.8256 34.7577 35.2039 35 34.5556 35H17.4444C16.7961 35 16.1744 34.7577 15.716 34.3263C15.2575 33.895 15 33.31 15 32.7V20.05Z" stroke="#EF4E23" stroke-linecap="round" stroke-linejoin="round"/>
<path d="M22 35V23H30V35" stroke="#EF4E23" stroke-linecap="round" stroke-linejoin="round"/>
</svg>
