<svg width="27" height="49" viewBox="0 0 27 49" fill="none" xmlns="http://www.w3.org/2000/svg">
<path fill-rule="evenodd" clip-rule="evenodd" d="M21.6889 0.3556C21.425 0.551234 21.0959 0.780543 20.9579 0.865178C20.8196 0.949591 20.6078 1.10867 20.487 1.21834C20.3664 1.32801 20.2233 1.41774 20.169 1.41774C20.1147 1.41774 19.9703 1.52741 19.8482 1.66145C19.7261 1.79549 19.4822 2.0248 19.306 2.17103C19.13 2.31726 18.8592 2.54657 18.7041 2.68061C18.549 2.81465 18.3719 2.92432 18.3102 2.92432C18.2487 2.92432 18.1128 3.02402 18.0086 3.14588C17.9043 3.26773 17.7874 3.36743 17.7491 3.36743C17.7107 3.36743 17.5377 3.50701 17.3648 3.67761C17.1918 3.84821 17.0145 3.98779 16.9707 3.98779C16.9268 3.98779 16.8891 4.03764 16.8872 4.09857C16.8852 4.15949 16.6292 4.36886 16.3181 4.56383C16.0071 4.7588 15.6261 5.02888 15.4713 5.16403C15.3164 5.29918 15.072 5.51276 14.928 5.6386C14.1983 6.27624 14.0452 6.39101 13.862 6.43775C13.7525 6.46567 13.6631 6.53745 13.6631 6.5975C13.6631 6.65754 13.5656 6.7517 13.4463 6.80709C13.327 6.86225 13.0424 7.08824 12.8138 7.30913C12.1894 7.91287 11.656 8.33028 11.509 8.33028C11.4368 8.33028 11.2715 8.43996 11.1417 8.574C10.6045 9.12877 9.19436 10.28 9.05216 10.28C9.01182 10.28 8.7669 10.4778 8.50758 10.7198C7.77196 11.4059 7.28954 11.7866 7.15519 11.7866C7.08736 11.7866 6.94647 11.8863 6.84223 12.0081C6.73798 12.13 6.60756 12.2297 6.55216 12.2297C6.49699 12.2297 6.39928 12.3294 6.33516 12.4512C6.27104 12.5731 6.18402 12.6728 6.14193 12.6728C6.09984 12.6728 5.95939 12.7816 5.82962 12.9147C5.54828 13.2032 4.80458 13.7363 4.68333 13.7363C4.63622 13.7363 4.48791 13.836 4.354 13.958C3.81051 14.453 3.48883 14.6872 3.28186 14.739C3.16191 14.7689 2.86748 14.9781 2.62758 15.2034C2.38768 15.4289 2.09325 15.6653 1.97308 15.7291C1.85313 15.793 1.68018 15.929 1.5888 16.0314C1.49742 16.1339 1.34955 16.2177 1.25992 16.2177C1.1705 16.2177 1.05622 16.309 1.00606 16.4206C0.956114 16.5323 0.829619 16.6619 0.724935 16.7086C0.620468 16.7554 0.521019 16.8735 0.50379 16.971C0.486779 17.0685 0.398668 17.23 0.30816 17.3301C-0.0852799 17.7644 -0.10818 19.6265 0.275228 20.0025C0.384928 20.1102 0.500299 20.3167 0.531704 20.4614C0.562891 20.606 0.684151 20.7882 0.801049 20.8659C0.917947 20.9437 1.01369 21.0678 1.01369 21.1413C1.01369 21.2151 1.18119 21.3483 1.38576 21.4375C1.59033 21.5266 1.81017 21.6637 1.87429 21.7422C1.93841 21.8206 2.13404 21.9117 2.30916 21.9442C2.48429 21.977 2.73859 22.0976 2.87424 22.2125C3.01142 22.3286 3.23562 22.4212 3.38 22.4212C3.53986 22.4212 3.71281 22.5015 3.83123 22.6302C3.95337 22.7631 4.17168 22.8615 4.43055 22.9005C4.65453 22.9342 4.8855 23.0199 4.94373 23.0912C5.00174 23.1624 5.26999 23.2847 5.53956 23.3626C5.80934 23.4408 6.11096 23.58 6.20998 23.6719C6.30899 23.7639 6.45031 23.8392 6.52403 23.8392C6.78465 23.8392 7.20753 24.0355 7.20753 24.1565C7.20753 24.2783 7.30088 24.3118 7.93182 24.415C8.11436 24.4449 8.28469 24.5251 8.31021 24.5932C8.35448 24.7101 8.62754 24.824 9.13242 24.9366C9.25564 24.964 9.448 25.0673 9.5601 25.1661C9.67242 25.2649 9.87045 25.3458 10.0004 25.3458C10.1317 25.3458 10.3832 25.4639 10.5662 25.6117C10.7474 25.7579 11.0002 25.8775 11.1282 25.8775C11.2562 25.8775 11.4887 25.9732 11.6449 26.0902C11.8008 26.2072 12.0734 26.3299 12.2505 26.3632C12.4276 26.3964 12.6511 26.4959 12.7471 26.5841C12.8431 26.6725 13.059 26.7726 13.2269 26.8067C13.3948 26.8411 13.6696 26.9612 13.8376 27.0739C14.0055 27.1867 14.2803 27.3068 14.4482 27.3411C14.6161 27.3752 14.8382 27.482 14.9415 27.5784C15.0449 27.6748 15.2905 27.7904 15.4874 27.8354C15.6842 27.8802 15.9175 27.9905 16.0058 28.0802C16.0942 28.17 16.3352 28.2708 16.5415 28.3042C16.7478 28.3379 17.0259 28.4586 17.1593 28.5725C17.2926 28.6866 17.5502 28.8083 17.7314 28.8428C17.9124 28.8774 18.1735 29.0019 18.3113 29.1198C18.4491 29.2374 18.6539 29.3338 18.7665 29.3338C18.879 29.3338 19.082 29.4273 19.2177 29.5416C19.3533 29.6559 19.5959 29.7754 19.7566 29.807C19.9173 29.8387 20.1657 29.9646 20.3086 30.0866C20.4562 30.2129 20.6783 30.3086 20.8237 30.3086C20.9873 30.3086 21.1474 30.388 21.268 30.5291C21.3718 30.6501 21.5971 30.775 21.7689 30.8065C22.192 30.8836 22.2996 30.9886 22.2996 31.3236C22.2996 31.7175 20.0696 34.0308 19.6899 34.0308C19.6129 34.0308 19.501 34.1105 19.441 34.208C19.381 34.3055 19.2849 34.3853 19.2271 34.3853C19.1693 34.3853 19.0223 34.4863 18.9006 34.6097C18.4736 35.0424 18.0655 35.3358 17.7414 35.443C17.5615 35.5024 17.4143 35.5846 17.4143 35.6253C17.4143 35.7084 16.6359 36.2244 16.2433 36.4014C16.1031 36.4648 15.9376 36.59 15.8759 36.6797C15.8139 36.7694 15.6091 36.868 15.4205 36.8986C15.2307 36.9294 15.0547 37.0158 15.0257 37.0922C14.9972 37.1682 14.8017 37.3076 14.5917 37.402C14.3815 37.4964 14.1603 37.6339 14.1001 37.7075C14.0399 37.7813 13.915 37.8415 13.8227 37.8415C13.7303 37.8415 13.568 37.9368 13.4618 38.0531C13.3556 38.1695 13.1264 38.3046 12.9523 38.3533C12.7781 38.4023 12.5528 38.5264 12.4516 38.6292C12.3502 38.7322 12.1779 38.8164 12.0686 38.8164C11.9593 38.8164 11.741 38.936 11.5834 39.0823C11.4023 39.2502 11.2034 39.3481 11.0427 39.3481C10.8698 39.3481 10.7439 39.4168 10.6497 39.5628C10.5598 39.7022 10.3934 39.7979 10.1758 39.8351C9.99127 39.8668 9.77056 39.9709 9.6855 40.0664C9.60045 40.1619 9.36382 40.2826 9.15968 40.3349C8.95555 40.3872 8.72066 40.5062 8.63757 40.5993C8.55448 40.6925 8.33769 40.7929 8.15537 40.8226C7.94163 40.8574 7.7761 40.9511 7.68843 41.0871C7.59705 41.2287 7.46968 41.2978 7.29935 41.2978C7.16021 41.2978 6.93557 41.39 6.79991 41.5025C6.66426 41.6151 6.39274 41.7544 6.19667 41.8121C6.00061 41.8697 5.76877 41.9968 5.68154 42.0948C5.5943 42.1925 5.41437 42.2727 5.28155 42.2727C5.14874 42.2727 4.92868 42.3679 4.79259 42.4843C4.6565 42.6006 4.39893 42.7366 4.22009 42.7869C4.04148 42.837 3.7911 42.961 3.66396 43.0627C3.53681 43.1644 3.33311 43.2475 3.2112 43.2475C2.87446 43.2475 2.01343 44.1975 1.94277 44.6471C1.91311 44.8358 1.80951 45.0627 1.7129 45.1518C1.46187 45.3824 1.46143 46.3163 1.71246 46.6404C1.80864 46.7647 1.9118 46.9996 1.94167 47.162C1.97134 47.3241 2.07886 47.5408 2.18071 47.6434C2.28256 47.7458 2.49432 47.9751 2.65157 48.153C2.8086 48.3307 2.9774 48.4762 3.02647 48.4762C3.07554 48.4762 3.21577 48.5859 3.33812 48.7199C3.65545 49.0678 5.76223 49.1019 6.07192 48.7643C6.17246 48.6546 6.30332 48.5648 6.36264 48.5648C6.42218 48.5648 6.59971 48.4452 6.75739 48.299C6.91485 48.1528 7.12182 48.0331 7.21713 48.0331C7.31244 48.0331 7.47688 47.9392 7.58244 47.8242C7.68821 47.7094 7.89518 47.5526 8.04261 47.4757C8.19004 47.3988 8.36168 47.2734 8.42406 47.197C8.48643 47.1208 8.6295 47.0583 8.74182 47.0583C8.85981 47.0583 8.98739 46.9801 9.04387 46.8726C9.09774 46.7707 9.31082 46.6112 9.51736 46.5183C9.72411 46.4253 9.91581 46.2895 9.94351 46.2164C9.97099 46.1432 10.0502 46.0834 10.1191 46.0834C10.188 46.0834 10.4059 45.9463 10.6035 45.7786C10.8011 45.6109 11.0403 45.4487 11.1352 45.4181C11.23 45.3875 11.3077 45.3301 11.3077 45.2907C11.3077 45.251 11.4353 45.166 11.5912 45.1013C11.7471 45.0368 11.9788 44.8724 12.1059 44.7361C12.2333 44.5999 12.394 44.4882 12.4631 44.4882C12.5325 44.4882 12.6603 44.4085 12.7471 44.311C12.8339 44.2135 12.9582 44.1337 13.0232 44.1337C13.0882 44.1337 13.2644 44.0141 13.4151 43.8679C13.5658 43.7216 13.717 43.602 13.7512 43.602C13.7854 43.602 13.9617 43.4824 14.1429 43.3361C14.3241 43.1899 14.5296 43.0703 14.5998 43.0703C14.6698 43.0703 14.8382 42.9606 14.9738 42.8266C15.5236 42.2831 15.7725 42.0954 15.9435 42.0954C16.0423 42.0954 16.2309 41.9858 16.3631 41.8517C16.8619 41.3452 17.8618 40.5888 18.0326 40.5888C18.0742 40.5888 18.313 40.3903 18.5636 40.1475C18.814 39.9049 19.1486 39.6437 19.3071 39.5672C19.4657 39.491 19.5952 39.3931 19.5952 39.3499C19.5952 39.3067 19.6835 39.2444 19.7915 39.2112C19.8995 39.1782 20.0859 39.053 20.2059 38.9329C20.8288 38.3101 21.5022 37.7372 21.7543 37.6156C21.9103 37.5402 22.0379 37.4399 22.0379 37.3924C22.0379 37.3448 22.1443 37.2571 22.2745 37.197C22.4555 37.114 24.4039 35.2675 24.9603 34.652C25.0083 34.5991 25.248 34.3478 25.4929 34.0937C25.7378 33.8398 25.9679 33.5323 26.0045 33.4104C26.041 33.2886 26.1483 33.1029 26.2427 32.9979C26.3371 32.8929 26.4529 32.6337 26.4996 32.4218C26.5465 32.21 26.6708 31.9439 26.7757 31.8303C27.0967 31.4833 27.0649 29.3094 26.733 28.9084C26.6043 28.7529 26.475 28.5486 26.4455 28.4544C26.4161 28.3603 26.2475 28.1966 26.0708 28.0906C25.8942 27.985 25.6985 27.8241 25.636 27.7333C25.5736 27.6427 25.3895 27.5432 25.227 27.5122C25.0646 27.4811 24.8523 27.3806 24.7553 27.2888C24.658 27.1969 24.4153 27.0843 24.216 27.0389C24.0164 26.9933 23.7686 26.877 23.6653 26.7806C23.5562 26.6787 23.2832 26.5787 23.0145 26.5424C22.7192 26.5025 22.4908 26.4137 22.3842 26.2974C22.2723 26.1753 22.0413 26.0902 21.6887 26.0413C21.3831 25.9989 21.0549 25.8884 20.9094 25.7792C20.7437 25.6546 20.4591 25.5696 20.072 25.5288C19.6434 25.4838 19.4528 25.4216 19.3638 25.2979C19.2703 25.1679 19.0903 25.116 18.5887 25.0744C18.0827 25.0323 17.8891 24.9758 17.7303 24.8242C17.5711 24.6723 17.3811 24.6173 16.8808 24.5783C16.4163 24.542 16.1515 24.4713 15.9313 24.3246C15.7208 24.1844 15.4294 24.102 14.9941 24.0599C14.5701 24.0187 14.2908 23.9416 14.1451 23.825C14.0059 23.714 13.7139 23.6283 13.3342 23.5871C12.9113 23.5412 12.6893 23.4703 12.5611 23.34C12.4322 23.2091 12.2136 23.14 11.7873 23.0957C11.418 23.0573 11.1018 22.9678 10.9524 22.8597C10.82 22.764 10.528 22.6601 10.3031 22.6288C10.0676 22.5961 9.79084 22.4837 9.65061 22.3636C9.51648 22.2491 9.31431 22.1552 9.20134 22.1549C8.86547 22.1541 8.36234 21.9837 8.31326 21.8538C8.28818 21.7876 8.07249 21.6857 7.8339 21.6274C7.59203 21.5685 7.31222 21.4267 7.20143 21.3068C7.09216 21.1887 6.95062 21.0919 6.88693 21.0919C6.82347 21.0919 6.69872 21.0221 6.60996 20.9368C6.52119 20.8515 6.29547 20.6951 6.10834 20.5892C5.69397 20.3546 5.66496 20.0185 6.02023 19.5647C6.14498 19.4054 6.3356 19.1575 6.44377 19.0137C6.55194 18.8699 6.74845 18.6517 6.88039 18.5287C7.01234 18.4058 7.1203 18.2655 7.1203 18.2172C7.1203 18.1155 7.22149 17.9999 8.07598 17.1261C8.42144 16.7727 8.74116 16.4835 8.78653 16.4835C8.83167 16.4835 9.08509 16.2742 9.34942 16.0183C10.2294 15.1664 10.3721 15.0479 10.6226 14.9592C10.7594 14.9107 10.8715 14.8361 10.8715 14.7933C10.8715 14.7505 10.9877 14.6546 11.1297 14.5799C11.2717 14.5055 11.4856 14.3548 11.6054 14.2454C12.0745 13.8162 12.4084 13.5834 12.6354 13.5271C12.7661 13.4948 12.9146 13.3891 12.9658 13.292C13.0169 13.1952 13.1063 13.1148 13.1645 13.1135C13.2228 13.1121 13.4247 12.9925 13.6131 12.8476C13.8016 12.7027 14.0186 12.5842 14.0953 12.5842C14.1721 12.5842 14.3383 12.4645 14.4646 12.3183C14.626 12.1313 14.7736 12.0524 14.9618 12.0524C15.1509 12.0524 15.2713 11.9875 15.3723 11.8309C15.4508 11.709 15.5596 11.6082 15.6141 11.6069C15.6687 11.6055 15.8674 11.4859 16.0558 11.341C16.2442 11.1961 16.4704 11.0776 16.5581 11.0776C16.6457 11.0776 16.8023 10.9783 16.9061 10.8571C17.0099 10.7362 17.2265 10.6119 17.3875 10.5811C17.5484 10.5505 17.7283 10.4559 17.7872 10.371C17.8459 10.2862 18.0583 10.132 18.259 10.0281C18.4596 9.92438 18.6465 9.80208 18.6742 9.75622C18.7021 9.71058 18.8367 9.64832 18.9736 9.61775C19.1104 9.58717 19.306 9.46443 19.4081 9.34501C19.5115 9.22426 19.6896 9.12789 19.8092 9.12789C19.9276 9.12789 20.1143 9.03151 20.2242 8.91342C20.3341 8.79555 20.5867 8.65553 20.7858 8.60235C20.9847 8.54918 21.1694 8.44749 21.1962 8.37637C21.2233 8.30547 21.3842 8.18827 21.5543 8.11604C21.7242 8.04381 21.8634 7.94633 21.8634 7.89892C21.8634 7.85172 22.04 7.74471 22.2559 7.66096C22.4719 7.57722 22.6485 7.48261 22.6485 7.45071C22.6485 7.36962 23.6975 6.68213 23.9353 6.60747C24.0432 6.57357 24.1315 6.48982 24.1315 6.42114C24.1315 6.35268 24.2395 6.23769 24.3715 6.16546C24.5034 6.09346 24.839 5.7835 25.1175 5.47642C25.3958 5.16957 25.7095 4.82593 25.8139 4.71272C25.9941 4.51841 26.0043 4.42603 26.0058 3.00253L26.0071 1.49794L25.3965 0.92234C25.0606 0.605736 24.7032 0.268529 24.6022 0.17326C24.4395 0.0197215 24.2897 -0.000219748 23.2936 1.80752e-06H22.1687L21.6889 0.3556Z" fill="#FF5900"/>
</svg>
